<?xml version="1.0" encoding="UTF-8" standalone="no"?><!DOCTYPE svg PUBLIC "-//W3C//DTD SVG 1.1//EN" "http://www.w3.org/Graphics/SVG/1.1/DTD/svg11.dtd"><!-- Generated by graphviz version 2.40.1 (20161225.0304)
 --><!-- Title: MooreFSM Pages: 1 --><svg xmlns="http://www.w3.org/2000/svg" xmlns:xlink="http://www.w3.org/1999/xlink" width="363pt" height="399pt" viewBox="0.00 0.00 363.44 399.20">
<g id="graph0" class="graph" transform="scale(1 1) rotate(0) translate(4 395.2)">
<title>MooreFSM</title>
<polygon fill="#ffffff" stroke="transparent" points="-4,4 -4,-395.2 359.44,-395.2 359.44,4 -4,4"/>
<!-- Red -->
<g id="node1" class="node">
<title>Red</title>
<ellipse fill="none" stroke="#000000" cx="114.453" cy="-373.2" rx="27" ry="18"/>
<text text-anchor="middle" x="114.453" y="-369" font-family="Times,serif" font-size="14.00" fill="#000000">Red</text>
</g>
<!-- Green1 -->
<g id="node2" class="node">
<title>Green1</title>
<ellipse fill="none" stroke="#000000" cx="39.453" cy="-284.4" rx="39.4061" ry="18"/>
<text text-anchor="middle" x="39.453" y="-280.2" font-family="Times,serif" font-size="14.00" fill="#000000">Green1</text>
</g>
<!-- Red&#45;&gt;Green1 -->
<g id="edge1" class="edge">
<title>Red-&gt;Green1</title>
<path fill="none" stroke="#000000" d="M88.1288,-368.6882C70.1175,-364.0826 47.5125,-354.9661 36.1252,-337.2 31.474,-329.9433 30.68,-320.9116 31.5404,-312.3815"/>
<polygon fill="#000000" stroke="#000000" points="35.015,-312.8273 33.2622,-302.3784 28.1165,-311.6398 35.015,-312.8273"/>
<text text-anchor="middle" x="108.1169" y="-324.6" font-family="Times,serif" font-size="14.00" fill="#000000">Output=Stop / Latency=1</text>
</g>
<!-- Green2 -->
<g id="node3" class="node">
<title>Green2</title>
<ellipse fill="none" stroke="#000000" cx="41.453" cy="-195.6" rx="39.4061" ry="18"/>
<text text-anchor="middle" x="41.453" y="-191.4" font-family="Times,serif" font-size="14.00" fill="#000000">Green2</text>
</g>
<!-- Green1&#45;&gt;Green2 -->
<g id="edge2" class="edge">
<title>Green1-&gt;Green2</title>
<path fill="none" stroke="#000000" d="M39.8674,-266.0006C40.1401,-253.8949 40.5024,-237.8076 40.8119,-224.0674"/>
<polygon fill="#000000" stroke="#000000" points="44.3199,-223.7483 41.046,-213.672 37.3216,-223.5906 44.3199,-223.7483"/>
<text text-anchor="middle" x="108.8336" y="-235.8" font-family="Times,serif" font-size="14.00" fill="#000000">Output=Go / Latency=1</text>
</g>
<!-- Green3 -->
<g id="node4" class="node">
<title>Green3</title>
<ellipse fill="none" stroke="#000000" cx="42.453" cy="-106.8" rx="39.4061" ry="18"/>
<text text-anchor="middle" x="42.453" y="-102.6" font-family="Times,serif" font-size="14.00" fill="#000000">Green3</text>
</g>
<!-- Green2&#45;&gt;Green3 -->
<g id="edge3" class="edge">
<title>Green2-&gt;Green3</title>
<path fill="none" stroke="#000000" d="M41.6602,-177.2006C41.7966,-165.0949 41.9777,-149.0076 42.1325,-135.2674"/>
<polygon fill="#000000" stroke="#000000" points="45.6366,-134.9108 42.2495,-124.872 38.637,-134.8319 45.6366,-134.9108"/>
<text text-anchor="middle" x="109.8336" y="-147" font-family="Times,serif" font-size="14.00" fill="#000000">Output=Go / Latency=1</text>
</g>
<!-- Yellow -->
<g id="node5" class="node">
<title>Yellow</title>
<ellipse fill="none" stroke="#000000" cx="118.453" cy="-18" rx="39.4235" ry="18"/>
<text text-anchor="middle" x="118.453" y="-13.8" font-family="Times,serif" font-size="14.00" fill="#000000">Yellow</text>
</g>
<!-- Green3&#45;&gt;Yellow -->
<g id="edge4" class="edge">
<title>Green3-&gt;Yellow</title>
<path fill="none" stroke="#000000" d="M38.8516,-88.7694C37.6713,-77.8544 38.0592,-64.1332 44.6918,-54 51.5812,-43.4745 62.4907,-35.9273 73.8284,-30.5559"/>
<polygon fill="#000000" stroke="#000000" points="75.5149,-33.6435 83.3739,-26.5381 72.7992,-27.1918 75.5149,-33.6435"/>
<text text-anchor="middle" x="112.8336" y="-58.2" font-family="Times,serif" font-size="14.00" fill="#000000">Output=Go / Latency=1</text>
</g>
<!-- Yellow&#45;&gt;Red -->
<g id="edge5" class="edge">
<title>Yellow-&gt;Red</title>
<path fill="none" stroke="#000000" d="M148.6309,-29.8943C159.7697,-35.6529 171.581,-43.6107 179.453,-54 194.1148,-73.3503 193.453,-82.5224 193.453,-106.8 193.453,-284.4 193.453,-284.4 193.453,-284.4 193.453,-308.6776 194.3782,-318.0522 179.453,-337.2 171.3986,-347.5332 159.5045,-355.3336 148.0849,-360.9845"/>
<polygon fill="#000000" stroke="#000000" points="146.3651,-357.9211 138.6989,-365.2341 149.2523,-364.298 146.3651,-357.9211"/>
<text text-anchor="middle" x="274.4465" y="-191.4" font-family="Times,serif" font-size="14.00" fill="#000000">Output=Caution / Latency=1</text>
</g>
</g>
</svg>